<svg xmlns="http://www.w3.org/2000/svg" width="19.912" height="19.912" viewBox="0 0 19.912 19.912">
  <path id="Icon_awesome-whatsapp" data-name="Icon awesome-whatsapp" d="M16.93,5.143A9.87,9.87,0,0,0,1.4,17.051L0,22.162l5.231-1.373a9.837,9.837,0,0,0,4.716,1.2h0a9.962,9.962,0,0,0,9.96-9.867A9.906,9.906,0,0,0,16.93,5.143ZM9.952,20.326a8.187,8.187,0,0,1-4.178-1.142l-.3-.178-3.1.813L3.2,16.793,3,16.482a8.217,8.217,0,1,1,15.241-4.36,8.293,8.293,0,0,1-8.294,8.2Zm4.5-6.143c-.244-.124-1.458-.72-1.685-.8s-.391-.124-.556.124-.636.8-.782.969-.289.187-.533.062a6.711,6.711,0,0,1-3.356-2.933c-.253-.436.253-.4.724-1.347a.457.457,0,0,0-.022-.431C8.178,9.7,7.685,8.49,7.48,8s-.4-.413-.556-.422-.307-.009-.471-.009a.913.913,0,0,0-.658.307A2.77,2.77,0,0,0,4.934,9.93a4.83,4.83,0,0,0,1,2.551,11.017,11.017,0,0,0,4.214,3.725,4.824,4.824,0,0,0,2.96.618,2.525,2.525,0,0,0,1.662-1.173,2.062,2.062,0,0,0,.142-1.173C14.859,14.366,14.694,14.3,14.45,14.184Z" transform="translate(0 -2.25)" fill="#fff"/>
</svg>
