<svg xmlns="http://www.w3.org/2000/svg" width="18.308" height="14.869" viewBox="0 0 18.308 14.869">
  <path id="Icon_awesome-twitter" data-name="Icon awesome-twitter" d="M16.426,7.086c.012.163.012.325.012.488A10.6,10.6,0,0,1,5.762,18.25,10.6,10.6,0,0,1,0,16.566a7.762,7.762,0,0,0,.906.046,7.515,7.515,0,0,0,4.658-1.6,3.759,3.759,0,0,1-3.508-2.6,4.732,4.732,0,0,0,.709.058,3.968,3.968,0,0,0,.987-.128A3.753,3.753,0,0,1,.743,8.655V8.608a3.779,3.779,0,0,0,1.7.476A3.758,3.758,0,0,1,1.278,4.066,10.665,10.665,0,0,0,9.015,7.993a4.236,4.236,0,0,1-.093-.86,3.756,3.756,0,0,1,6.494-2.567A7.387,7.387,0,0,0,17.8,3.66a3.742,3.742,0,0,1-1.65,2.068,7.522,7.522,0,0,0,2.161-.581,8.066,8.066,0,0,1-1.882,1.94Z" transform="translate(0 -3.381)" fill="#fff"/>
</svg>
