<svg xmlns="http://www.w3.org/2000/svg" width="45.812" height="45.812" viewBox="0 0 45.812 45.812">
  <g id="Icon_ionic-logo-codepen" data-name="Icon ionic-logo-codepen" transform="translate(0 0)">
    <path id="Path_1" data-name="Path 1" d="M19.851,22.393c-1.567-1.059-3.144-2.1-4.71-3.163a.42.42,0,0,0-.563,0L10.6,21.9c3.187,2.124,9.53,6.359,9.53,6.359v-5.5C20.132,22.635,19.975,22.476,19.851,22.393Z" transform="translate(1.545 5.415)" fill="#2c2738"/>
    <path id="Path_2" data-name="Path 2" d="M15.134,19.73q2.37-1.558,4.715-3.156a.773.773,0,0,0,.286-.545V10.741s-6.343,4.205-9.537,6.334c1.4.937,2.727,1.832,4.069,2.7A.537.537,0,0,0,15.134,19.73Z" transform="translate(1.543 1.608)" fill="#2c2738"/>
    <path id="Path_3" data-name="Path 3" d="M19.032,16.537q2.425,1.642,4.87,3.253a.44.44,0,0,0,.393,0l4.065-2.706-9.516-6.362v5.455A.494.494,0,0,0,19.032,16.537Z" transform="translate(5.289 1.599)" fill="#2c2738"/>
    <path id="Path_4" data-name="Path 4" d="M19.562,16.213a.541.541,0,0,0-.485.017c-.493.3-.968.634-1.448.957l-2.593,1.741,3.972,2.645a.633.633,0,0,0,.64.011l3.99-2.658S20.153,16.6,19.562,16.213Z" transform="translate(3.559 4.071)" fill="#2c2738"/>
    <path id="Path_5" data-name="Path 5" d="M9.914,16.672v4.05l3.029-2.029Z" transform="translate(1.232 4.303)" fill="#2c2738"/>
    <path id="Path_7" data-name="Path 7" d="M23.777,19.25q-2.309,1.568-4.641,3.1a.628.628,0,0,0-.293.633v5.251l9.514-6.34-3.94-2.647A.481.481,0,0,0,23.777,19.25Z" transform="translate(5.289 5.418)" fill="#2c2738"/>
    <path id="Path_8" data-name="Path 8" d="M26.961,20.719V16.668L23.935,18.7Z" transform="translate(7.602 4.301)" fill="#2c2738"/>
    <path id="Path_6" data-name="Path 6" d="M25.156,2.25A22.906,22.906,0,1,0,48.062,25.156,22.906,22.906,0,0,0,25.156,2.25Zm14.214,27.1a1.52,1.52,0,0,1-.768,1.339q-6.311,4.19-12.607,8.4a1.409,1.409,0,0,1-1.737-.014Q18,34.889,11.718,30.726a1.554,1.554,0,0,1-.777-1.4V21.169a1.558,1.558,0,0,1,.78-1.4c4.183-2.774,8.379-5.559,12.55-8.352A1.4,1.4,0,0,1,26,11.405q6.294,4.214,12.6,8.405A1.476,1.476,0,0,1,39.37,21.1Z" transform="translate(-2.25 -2.25)" fill="#0880ae"/>
  </g>
</svg>
