<svg id="Icon_ionic-ios-add-circle-outline" data-name="Icon ionic-ios-add-circle-outline" xmlns="http://www.w3.org/2000/svg" width="18.625" height="18.625" viewBox="0 0 18.625 18.625">
  <path id="Path_3705" data-name="Path 3705" d="M19.332,14.564H16V11.228a.716.716,0,1,0-1.433,0v3.335H11.228a.686.686,0,0,0-.716.716.693.693,0,0,0,.716.716h3.335v3.335a.694.694,0,0,0,.716.716A.713.713,0,0,0,16,19.332V16h3.335a.716.716,0,1,0,0-1.433Z" transform="translate(-5.967 -5.967)" fill="#2c2738"/>
  <path id="Path_3706" data-name="Path 3706" d="M12.688,4.629a8.056,8.056,0,1,1-5.7,2.359,8.006,8.006,0,0,1,5.7-2.359m0-1.254A9.313,9.313,0,1,0,22,12.688a9.311,9.311,0,0,0-9.312-9.312Z" transform="translate(-3.375 -3.375)" fill="#2c2738"/>
</svg>
