<svg xmlns="http://www.w3.org/2000/svg" width="19.817" height="19.812" viewBox="0 0 19.817 19.812">
  <path id="Icon_awesome-instagram" data-name="Icon awesome-instagram" d="M9.905,7.064a5.08,5.08,0,1,0,5.08,5.08A5.072,5.072,0,0,0,9.905,7.064Zm0,8.382a3.3,3.3,0,1,1,3.3-3.3,3.308,3.308,0,0,1-3.3,3.3Zm6.472-8.59a1.185,1.185,0,1,1-1.185-1.185A1.182,1.182,0,0,1,16.378,6.856Zm3.364,1.2a5.863,5.863,0,0,0-1.6-4.151,5.9,5.9,0,0,0-4.151-1.6c-1.636-.093-6.539-.093-8.174,0A5.893,5.893,0,0,0,1.665,3.9a5.883,5.883,0,0,0-1.6,4.151c-.093,1.636-.093,6.539,0,8.174a5.863,5.863,0,0,0,1.6,4.151,5.909,5.909,0,0,0,4.151,1.6c1.636.093,6.539.093,8.174,0a5.863,5.863,0,0,0,4.151-1.6,5.9,5.9,0,0,0,1.6-4.151c.093-1.636.093-6.534,0-8.17Zm-2.113,9.925a3.343,3.343,0,0,1-1.883,1.883c-1.3.517-4.4.4-5.84.4s-4.54.115-5.84-.4a3.343,3.343,0,0,1-1.883-1.883c-.517-1.3-.4-4.4-.4-5.84s-.115-4.54.4-5.84A3.343,3.343,0,0,1,4.065,4.421c1.3-.517,4.4-.4,5.84-.4s4.54-.115,5.84.4A3.343,3.343,0,0,1,17.629,6.3c.517,1.3.4,4.4.4,5.84S18.146,16.684,17.629,17.984Z" transform="translate(0.005 -2.238)" fill="#fff"/>
</svg>
